<svg xmlns="http://www.w3.org/2000/svg" viewBox="0 0 100 100">
  <path d="M49,6 C68,5 88,14 91,31 C94,49 90,72 75,84 C60,96 35,94 20,81 C6,69 6,47 14,31 C22,15 31,7 49,6 Z" fill="#2F4F6B12" stroke="#2F4F6B" stroke-width="2" opacity="0.5"/>
  <path d="M49,4 C70,3 91,14 94,32 C97,50 92,74 76,87 C60,99 33,96 17,83 C3,71 3,47 12,30 C20,14 30,5 49,4 Z" fill="none" stroke="#2F4F6B" stroke-width="2.4"/>
  <g stroke="#2F4F6B" stroke-width="1.1" opacity="0.35" stroke-linecap="round">
    <line x1="63" y1="70" x2="70" y2="63"/>
    <line x1="68" y1="76" x2="76" y2="68"/>
    <line x1="73" y1="81" x2="81" y2="73"/>
  </g>
  <path d="M50,24 C40,24 33,31 33,41 C33,48 37,52 40,57 C42,60 43,62 43,65 L57,65 C57,62 58,60 60,57 C63,52 67,48 67,41 C67,31 60,24 50,24 Z"
        fill="#2F4F6B16" stroke="#2F4F6B" stroke-width="2.8" stroke-linejoin="round"/>
  <path d="M43,70 L57,70 M45,75 L55,75" stroke="#2F4F6B" stroke-width="2.6" stroke-linecap="round"/>
  <path d="M44,45 C44,39 47,36 51,36" stroke="#2F4F6B" stroke-width="1.8" stroke-linecap="round" opacity="0.7"/>
</svg>
